HIERARCHY
ROOT Hips
{
 OFFSET 0.000000 0.000000 0.000000
 CHANNELS 6 Xposition Yposition Zposition Yrotation Xrotation Zrotation
 JOINT Chest
 {
  OFFSET 0.000000 9.585900 0.002600
  CHANNELS 3 Yrotation Xrotation Zrotation
  JOINT Chest2
  {
   OFFSET 0.000000 9.601200 -0.005300
   CHANNELS 3 Yrotation Xrotation Zrotation
   JOINT Chest3
   {
    OFFSET 0.000000 9.561800 0.000000
    CHANNELS 3 Yrotation Xrotation Zrotation
    JOINT Chest4
    {
     OFFSET 0.000000 9.552100 0.000000
     CHANNELS 3 Yrotation Xrotation Zrotation
     JOINT Neck
     {
      OFFSET 0.000000 14.453000 0.000000
      CHANNELS 3 Yrotation Xrotation Zrotation
      JOINT Head
      {
       OFFSET 0.000000 8.936500 -0.011300
       CHANNELS 3 Yrotation Xrotation Zrotation
       End Site
       {
        OFFSET 0.000000 17.073600 -0.006000
       }
      }
     }
     JOINT RightCollar
     {
      OFFSET -2.921100 9.558500 0.000000
      CHANNELS 3 Yrotation Xrotation Zrotation
      JOINT RightShoulder
      {
       OFFSET -13.519700 0.000000 0.000000
       CHANNELS 3 Yrotation Xrotation Zrotation
       JOINT RightElbow
       {
        OFFSET 0.000000 -29.696600 0.000000
        CHANNELS 3 Yrotation Xrotation Zrotation
        JOINT RightWrist
        {
         OFFSET 0.000000 -24.004700 0.000000
         CHANNELS 3 Yrotation Xrotation Zrotation
         End Site
         {
          OFFSET 0.000000 -17.728500 0.000000
         }
        }
       }
      }
     }
     JOINT LeftCollar
     {
      OFFSET 2.921100 9.558500 0.000000
      CHANNELS 3 Yrotation Xrotation Zrotation
      JOINT LeftShoulder
      {
       OFFSET 13.519700 0.000000 0.000000
       CHANNELS 3 Yrotation Xrotation Zrotation
       JOINT LeftElbow
       {
        OFFSET 0.000000 -29.696600 0.000000
        CHANNELS 3 Yrotation Xrotation Zrotation
        JOINT LeftWrist
        {
         OFFSET 0.000000 -24.004700 0.000000
         CHANNELS 3 Yrotation Xrotation Zrotation
         End Site
         {
          OFFSET 0.000000 -17.728500 0.000000
         }
        }
       }
      }
     }
    }
   }
  }
 }
 JOINT RightHip
 {
  OFFSET -7.771700 -0.012900 -0.001300
  CHANNELS 3 Yrotation Xrotation Zrotation
  JOINT RightKnee
  {
   OFFSET 0.000000 -40.869800 0.001200
   CHANNELS 3 Yrotation Xrotation Zrotation
   JOINT RightAnkle
   {
    OFFSET 0.000000 -39.717900 0.002100
    CHANNELS 3 Yrotation Xrotation Zrotation
    JOINT RightToe
    {
     OFFSET 0.000000 -4.965400 11.033500
     CHANNELS 3 Yrotation Xrotation Zrotation
     End Site
     {
      OFFSET 0.000000 -1.423100 5.872300
     }
    }
   }
  }
 }
 JOINT LeftHip
 {
  OFFSET 7.771700 -0.012900 -0.001300
  CHANNELS 3 Yrotation Xrotation Zrotation
  JOINT LeftKnee
  {
   OFFSET 0.000000 -40.869800 0.001200
   CHANNELS 3 Yrotation Xrotation Zrotation
   JOINT LeftAnkle
   {
    OFFSET 0.000000 -39.717900 0.002100
    CHANNELS 3 Yrotation Xrotation Zrotation
    JOINT LeftToe
    {
     OFFSET 0.000000 -4.965400 11.033500
     CHANNELS 3 Yrotation Xrotation Zrotation
     End Site
     {
      OFFSET 0.000000 -1.423100 5.872300
     }
    }
   }
  }
 }
}
MOTION
Frames: 12
Frame Time: 0.008333
-19.212259 57.977766 26.683337 170.715243 -32.874000 -0.446088 8.245219 16.859352 4.092867 0.910383 2.034866 0.254577 1.499679 3.376011 0.429046 7.145329 14.787549 2.764802 4.444908 15.609162 -1.608346 8.864116 -6.556087 -4.601489 -1.034300 3.536332 2.949200 -14.649551 -18.575335 -0.584019 85.635857 -80.518481 -118.843488 2.852222 -19.926814 -49.455134 -2.140729 1.903370 2.173014 27.430918 -9.749839 8.357445 29.017854 -87.723253 -21.654865 -13.920976 -20.127064 41.856555 15.300192 -39.431646 -0.137194 -11.203924 73.990862 -9.696040 -1.298482 -0.917841 3.841836 -0.138653 0.456949 -0.068034 -1.786395 -41.265852 2.281977 27.176670 72.576268 21.876418 -27.473864 0.987459 2.173811 -0.460470 -0.906159 -0.200882
-19.209760 57.977876 26.687295 170.727543 -32.873740 -0.421210 8.250551 16.833363 4.094055 0.914672 2.022078 0.261487 1.485982 3.377186 0.422801 7.136158 14.798928 2.758856 4.836585 15.683709 -1.609338 9.544042 -6.330476 -4.736644 -1.037747 3.546765 2.956893 -14.675414 -18.411086 -0.538237 86.560119 -80.318401 -119.611521 2.956669 -20.141823 -49.778104 -1.985386 2.004554 2.231558 27.428776 -9.541227 8.085885 37.169870 -87.672175 -29.951276 -13.931700 -20.241822 41.970045 15.337885 -39.432382 -0.158762 -11.306662 73.992327 -9.784603 -1.494529 -0.883491 3.849676 -0.126757 0.466910 -0.071799 -1.716219 -41.258642 2.214895 27.144513 72.549162 21.875492 -27.520916 0.983900 2.163302 -0.443159 -0.889191 -0.195416
-19.205045 57.977281 26.692227 170.741253 -32.871312 -0.411082 8.264199 16.802837 4.113139 0.914730 2.018091 0.262347 1.506827 3.338179 0.443296 7.127872 14.801113 2.759301 5.164182 15.805098 -1.629290 10.169556 -6.104203 -4.877600 -1.080892 3.598576 2.946226 -14.699583 -18.240298 -0.500548 87.394227 -80.134489 -120.278268 3.057531 -20.344839 -50.090422 -1.873021 2.140516 2.272571 27.413039 -9.334198 7.860899 43.664783 -87.597710 -36.612451 -13.940357 -20.354365 42.074302 15.365613 -39.439371 -0.148270 -11.306882 73.995175 -9.816351 -1.640225 -0.845571 3.890027 -0.077110 0.447404 -0.073998 -1.684464 -41.261553 2.174948 27.203816 72.526776 21.954435 -27.557292 0.986569 2.149470 -0.445768 -0.886194 -0.190515
-19.203082 57.977540 26.694617 170.772294 -32.884997 -0.391412 8.263137 16.791010 4.117085 0.915371 2.014922 0.263514 1.495088 3.341754 0.437526 7.164308 14.762628 2.782816 5.459277 15.924728 -1.659203 10.743161 -5.878822 -5.025022 -1.139770 3.648779 2.930519 -14.709504 -18.068139 -0.470885 88.115517 -79.966261 -120.827540 3.146645 -20.525752 -50.377474 -1.775775 2.267191 2.310556 27.385181 -9.127253 7.677391 48.865350 -87.513132 -41.986624 -13.943599 -20.464805 42.166741 15.371746 -39.421063 -0.174263 -11.328056 74.002516 -9.855188 -1.700847 -0.831483 3.908431 -0.122705 0.451969 -0.072316 -1.664356 -41.248378 2.116879 27.281352 72.500963 22.040043 -27.608747 0.999333 2.138737 -0.441687 -0.890343 -0.189711
-19.198382 57.977356 26.697304 170.795977 -32.900777 -0.383929 8.276714 16.777744 4.139062 0.916198 2.012092 0.264689 1.506902 3.328273 0.447254 7.131675 14.785846 2.770408 5.773315 16.003300 -1.688164 11.267956 -5.654135 -5.177738 -1.166335 3.668569 2.923715 -14.695951 -17.904350 -0.444925 88.705275 -79.812466 -121.244897 3.215796 -20.676885 -50.626036 -1.640123 2.349163 2.362403 27.346628 -8.922468 7.523974 52.858696 -87.425506 -46.156577 -13.946148 -20.568446 42.250510 15.367131 -39.403679 -0.176827 -11.357838 74.005950 -9.904714 -1.730534 -0.823005 3.926550 -0.144453 0.460282 -0.072101 -1.653195 -41.234540 2.080165 27.348311 72.480033 22.123532 -27.661118 1.005542 2.115477 -0.419720 -0.891558 -0.183778
-19.193079 57.975282 26.702104 170.827893 -32.902651 -0.386399 8.287619 16.749967 4.166339 0.893976 2.025083 0.250110 1.543451 3.298485 0.470943 7.145034 14.769676 2.783322 6.011656 16.119579 -1.734337 11.746037 -5.433396 -5.334944 -1.222578 3.706537 2.904051 -14.679301 -17.726104 -0.431002 89.151692 -79.665209 -121.527034 3.265924 -20.797609 -50.831297 -1.554470 2.460706 2.400253 27.297651 -8.723611 7.391893 55.693658 -87.337999 -49.170404 -13.951584 -20.662343 42.330699 15.351333 -39.402473 -0.173333 -11.399474 74.008209 -9.968425 -1.748981 -0.814695 3.946178 -0.156082 0.468775 -0.073852 -1.621297 -41.239087 2.039373 27.509869 72.444283 22.310785 -27.760570 1.026320 2.089281 -0.382821 -0.897986 -0.169783
-19.188018 57.973682 26.705130 170.846850 -32.916534 -0.378743 8.312548 16.736491 4.192523 0.906149 2.014809 0.259275 1.533876 3.303060 0.465555 7.172945 14.744393 2.802499 6.224819 16.230797 -1.787300 12.181122 -5.222737 -5.494768 -1.274498 3.735185 2.886723 -14.649586 -17.546299 -0.427131 89.446846 -79.519694 -121.665093 3.302242 -20.894616 -51.000356 -1.472795 2.558362 2.441549 27.235666 -8.531767 7.277870 57.525526 -87.244663 -51.179498 -13.956007 -20.747607 42.410544 15.346016 -39.390241 -0.174212 -11.429434 74.013785 -10.016568 -1.756057 -0.806953 3.965628 -0.166842 0.474876 -0.078748 -1.611982 -41.229671 2.009553 27.578688 72.430446 22.384937 -27.776708 1.041217 2.076006 -0.385451 -0.905680 -0.163491
-19.185572 57.973057 26.705277 170.880618 -32.946986 -0.360906 8.323416 16.745071 4.201315 0.919842 2.005372 0.268281 1.495592 3.321443 0.446677 7.219283 14.718492 2.823269 6.432426 16.322119 -1.840355 12.575432 -5.025699 -5.653376 -1.269853 3.714616 2.871537 -14.646284 -17.336124 -0.433213 89.605876 -79.375612 -121.677794 3.332961 -20.977311 -51.139751 -1.379963 2.629845 2.494594 27.160490 -8.349033 7.179609 58.583187 -87.134616 -52.411414 -13.957904 -20.827281 42.487457 15.339598 -39.355306 -0.193763 -11.450220 74.025731 -10.057757 -1.757440 -0.811770 3.987712 -0.186465 0.485188 -0.083640 -1.600223 -41.201726 1.956705 27.589172 72.422919 22.400407 -27.795235 1.052915 2.071800 -0.378459 -0.910254 -0.163855
-19.180508 57.969960 26.708956 170.893090 -32.955069 -0.349842 8.358672 16.730357 4.226551 0.894850 2.015512 0.254613 1.496027 3.319570 0.447285 7.273384 14.694912 2.845762 6.617872 16.406394 -1.895507 12.929610 -4.842989 -5.808430 -1.306248 3.722666 2.858717 -14.585568 -17.155884 -0.446986 89.639906 -79.231656 -121.586009 3.365637 -21.049593 -51.251810 -1.297904 2.692955 2.550936 27.044153 -8.262141 7.098459 57.715125 -86.952782 -51.690879 -13.958754 -20.902317 42.556919 15.345036 -39.350074 -0.192127 -11.490148 74.030954 -10.118523 -1.767148 -0.809793 4.007402 -0.194757 0.497597 -0.085532 -1.591598 -41.198196 1.937272 27.652277 72.410202 22.462739 -27.842557 1.065619 2.063604 -0.382237 -0.913618 -0.162197
-19.176186 57.966098 26.713075 170.932711 -32.958375 -0.348464 8.371755 16.712518 4.248119 0.911521 2.008954 0.262864 1.532030 3.304833 0.463832 7.222383 14.714941 2.831235 6.807371 16.476519 -1.949840 13.246591 -4.675346 -5.957865 -1.318893 3.721359 2.851834 -14.514819 -16.979357 -0.471906 89.526958 -79.083267 -121.363698 3.396504 -21.112592 -51.340781 -1.205402 2.743659 2.611186 26.977298 -8.062927 7.020026 58.549945 -86.808578 -52.712556 -13.956758 -20.969375 42.616325 15.353969 -39.349427 -0.204552 -11.570969 74.039046 -10.209771 -1.782323 -0.804343 4.022103 -0.193540 0.503304 -0.078869 -1.615947 -41.203177 1.935585 27.798609 72.389065 22.576425 -27.931256 1.098633 2.057665 -0.381070 -0.922612 -0.157139
-19.172367 57.963444 26.714805 170.947489 -32.977493 -0.326456 8.407505 16.712263 4.265827 0.928920 2.003375 0.271701 1.539201 3.304309 0.466070 7.154889 14.735955 2.810045 7.028297 16.526624 -2.000778 13.529904 -4.524382 -6.099062 -1.281240 3.705217 2.855651 -14.443492 -16.810594 -0.505598 89.235174 -78.926322 -120.971620 3.424151 -21.170241 -51.413904 -1.072702 2.775890 2.675665 26.902670 -7.879900 6.955696 59.007350 -86.627294 -53.358044 -13.946562 -21.026685 42.663429 15.378890 -39.333229 -0.226303 -11.616345 74.052614 -10.263650 -1.789178 -0.801201 4.035965 -0.202116 0.508241 -0.078423 -1.606289 -41.186705 1.904878 27.835570 72.382458 22.602845 -27.949230 1.108042 2.054383 -0.381037 -0.923967 -0.155370
-19.166067 57.960939 26.716503 170.965201 -32.999359 -0.318133 8.445635 16.714891 4.296020 0.932619 2.003854 0.272531 1.511250 3.312683 0.453642 7.215314 14.715702 2.831839 7.159657 16.593583 -2.055178 13.784814 -4.390044 -6.231340 -1.314426 3.709099 2.857331 -14.371262 -16.651199 -0.547037 88.735745 -78.761951 -120.383163 3.453967 -21.225663 -51.472382 -1.016790 2.823537 2.728953 26.799734 -7.744603 6.905238 58.702701 -86.390588 -53.226677 -13.926034 -21.071328 42.696280 15.387886 -39.316602 -0.233771 -11.662842 74.064816 -10.315038 -1.784680 -0.796645 4.047182 -0.214121 0.510771 -0.081070 -1.619844 -41.164510 1.915110 27.827288 72.381792 22.569192 -27.993841 1.108607 2.045211 -0.354372 -0.914421 -0.142920
